<mxfile host="app.diagrams.net" modified="2024-02-28T03:07:31.961Z" agent="Mozilla/5.0 (Macintosh; Intel Mac OS X 10_15_7) AppleWebKit/605.1.15 (KHTML, like Gecko) Version/17.3 Safari/605.1.15" etag="NbFCsW5xKWCIvcs25H0s" version="23.1.7" type="github">
  <diagram id="07fea595-8f29-1299-0266-81d95cde20df" name="Page-1">
    <mxGraphModel dx="1434" dy="855" grid="1" gridSize="10" guides="1" tooltips="1" connect="1" arrows="1" fold="1" page="1" pageScale="1" pageWidth="1169" pageHeight="827" background="#ffffff" math="0" shadow="0">
      <root>
        <mxCell id="0" />
        <mxCell id="1" parent="0" />
        <mxCell id="mO9wln73oTjzs57yLY-i-218" value="销售订单" style="whiteSpace=wrap;shadow=0;fontColor=#FFFFFF;fontFamily=Helvetica;fontStyle=0;html=1;fontSize=12;plain-purple;strokeColor=none;fillColor=#2f5b7c;gradientColor=none;spacing=6;verticalAlign=middle;" vertex="1" parent="1">
          <mxGeometry x="510" y="320" width="120" height="60" as="geometry" />
        </mxCell>
        <mxCell id="mO9wln73oTjzs57yLY-i-219" value="药店" style="whiteSpace=wrap;shadow=0;fontColor=#FFFFFF;fontFamily=Helvetica;fontStyle=0;html=1;fontSize=12;plain-purple;strokeColor=none;fillColor=#2f5b7c;gradientColor=none;spacing=6;verticalAlign=middle;" vertex="1" parent="1">
          <mxGeometry x="270" y="320" width="120" height="60" as="geometry" />
        </mxCell>
        <mxCell id="mO9wln73oTjzs57yLY-i-238" style="edgeStyle=orthogonalEdgeStyle;rounded=0;orthogonalLoop=1;jettySize=auto;html=1;exitX=1;exitY=0.5;exitDx=0;exitDy=0;entryX=0.5;entryY=1;entryDx=0;entryDy=0;strokeWidth=3;" edge="1" parent="1" source="mO9wln73oTjzs57yLY-i-220" target="mO9wln73oTjzs57yLY-i-218">
          <mxGeometry relative="1" as="geometry">
            <Array as="points">
              <mxPoint x="570.5" y="500" />
            </Array>
          </mxGeometry>
        </mxCell>
        <mxCell id="mO9wln73oTjzs57yLY-i-220" value="药品" style="whiteSpace=wrap;shadow=0;fontColor=#FFFFFF;fontFamily=Helvetica;fontStyle=0;html=1;fontSize=12;plain-purple;strokeColor=none;fillColor=#2f5b7c;gradientColor=none;spacing=6;verticalAlign=middle;" vertex="1" parent="1">
          <mxGeometry x="390" y="470" width="120" height="60" as="geometry" />
        </mxCell>
        <mxCell id="mO9wln73oTjzs57yLY-i-221" value="业务员" style="whiteSpace=wrap;shadow=0;fontColor=#FFFFFF;fontFamily=Helvetica;fontStyle=0;html=1;fontSize=12;plain-purple;strokeColor=none;fillColor=#2f5b7c;gradientColor=none;spacing=6;verticalAlign=middle;" vertex="1" parent="1">
          <mxGeometry x="630" y="470" width="120" height="60" as="geometry" />
        </mxCell>
        <mxCell id="mO9wln73oTjzs57yLY-i-222" value="组织" style="whiteSpace=wrap;shadow=0;fontColor=#FFFFFF;fontFamily=Helvetica;fontStyle=0;html=1;fontSize=12;plain-purple;strokeColor=none;fillColor=#2f5b7c;gradientColor=none;spacing=6;verticalAlign=middle;" vertex="1" parent="1">
          <mxGeometry x="630" y="620" width="120" height="60" as="geometry" />
        </mxCell>
        <mxCell id="mO9wln73oTjzs57yLY-i-223" value="模板" style="whiteSpace=wrap;shadow=0;fontColor=#FFFFFF;fontFamily=Helvetica;fontStyle=0;html=1;fontSize=12;plain-purple;strokeColor=none;fillColor=#2f5b7c;gradientColor=none;spacing=6;verticalAlign=middle;" vertex="1" parent="1">
          <mxGeometry x="270" y="170" width="120" height="60" as="geometry" />
        </mxCell>
        <mxCell id="mO9wln73oTjzs57yLY-i-224" value="数据看板" style="whiteSpace=wrap;shadow=0;fontColor=#FFFFFF;fontFamily=Helvetica;fontStyle=0;html=1;fontSize=12;plain-purple;strokeColor=none;fillColor=#2f5b7c;gradientColor=none;spacing=6;verticalAlign=middle;" vertex="1" parent="1">
          <mxGeometry x="750" y="320" width="120" height="60" as="geometry" />
        </mxCell>
        <mxCell id="mO9wln73oTjzs57yLY-i-227" value="" style="edgeStyle=segmentEdgeStyle;strokeColor=#2F5B7C;strokeWidth=3;html=1;endArrow=block;endFill=1;exitX=1;exitY=0.5;exitDx=0;exitDy=0;entryX=0;entryY=0.5;entryDx=0;entryDy=0;" edge="1" parent="1" source="mO9wln73oTjzs57yLY-i-223" target="mO9wln73oTjzs57yLY-i-230">
          <mxGeometry x="644.5" y="308.5" width="100" height="100" as="geometry">
            <mxPoint x="1005.5" y="95" as="sourcePoint" />
            <mxPoint x="465.5" y="190" as="targetPoint" />
            <Array as="points">
              <mxPoint x="425.5" y="200" />
              <mxPoint x="425.5" y="200" />
            </Array>
          </mxGeometry>
        </mxCell>
        <mxCell id="mO9wln73oTjzs57yLY-i-229" value="" style="edgeStyle=segmentEdgeStyle;strokeColor=#12AAB5;strokeWidth=3;html=1;endArrow=block;endFill=1;entryX=0.5;entryY=0;entryDx=0;entryDy=0;exitX=0.5;exitY=1;exitDx=0;exitDy=0;" edge="1" parent="1" source="mO9wln73oTjzs57yLY-i-230" target="mO9wln73oTjzs57yLY-i-218">
          <mxGeometry x="484.5" y="178.5" width="100" height="100" as="geometry">
            <mxPoint x="570" y="190" as="sourcePoint" />
            <mxPoint x="965.5" y="50" as="targetPoint" />
          </mxGeometry>
        </mxCell>
        <mxCell id="mO9wln73oTjzs57yLY-i-230" value="导入" style="whiteSpace=wrap;shadow=0;fontColor=#FFFFFF;fontFamily=Helvetica;fontStyle=0;html=1;fontSize=12;plain-purple;strokeColor=none;fillColor=#12aab5;gradientColor=none;spacing=6;verticalAlign=middle;" vertex="1" parent="1">
          <mxGeometry x="510" y="170" width="120" height="60" as="geometry" />
        </mxCell>
        <mxCell id="mO9wln73oTjzs57yLY-i-232" value="" style="edgeStyle=segmentEdgeStyle;strokeColor=#2F5B7C;strokeWidth=3;html=1;endArrow=block;endFill=1;exitX=1;exitY=0.5;exitDx=0;exitDy=0;entryX=0;entryY=0.5;entryDx=0;entryDy=0;" edge="1" parent="1" source="mO9wln73oTjzs57yLY-i-218" target="mO9wln73oTjzs57yLY-i-224">
          <mxGeometry x="644.5" y="308.5" width="100" height="100" as="geometry">
            <mxPoint x="675.5" y="225" as="sourcePoint" />
            <mxPoint x="775.5" y="100" as="targetPoint" />
          </mxGeometry>
        </mxCell>
        <mxCell id="mO9wln73oTjzs57yLY-i-233" value="" style="edgeStyle=segmentEdgeStyle;strokeColor=#2F5B7C;strokeWidth=3;html=1;endArrow=block;endFill=1;exitX=0.25;exitY=1;exitDx=0;exitDy=0;entryX=0.5;entryY=1;entryDx=0;entryDy=0;" edge="1" parent="1" source="mO9wln73oTjzs57yLY-i-218" target="mO9wln73oTjzs57yLY-i-219">
          <mxGeometry x="644.5" y="308.5" width="100" height="100" as="geometry">
            <mxPoint x="625.5" y="275" as="sourcePoint" />
            <mxPoint x="725.5" y="150" as="targetPoint" />
            <Array as="points">
              <mxPoint x="540.5" y="420" />
              <mxPoint x="330.5" y="420" />
            </Array>
          </mxGeometry>
        </mxCell>
        <mxCell id="mO9wln73oTjzs57yLY-i-235" value="" style="edgeStyle=segmentEdgeStyle;strokeColor=#2F5B7C;strokeWidth=3;html=1;endArrow=block;endFill=1;exitX=1;exitY=0.5;exitDx=0;exitDy=0;entryX=0;entryY=0.5;entryDx=0;entryDy=0;" edge="1" parent="1" source="mO9wln73oTjzs57yLY-i-219" target="mO9wln73oTjzs57yLY-i-218">
          <mxGeometry x="644.5" y="308.5" width="100" height="100" as="geometry">
            <mxPoint x="1015.5" y="105" as="sourcePoint" />
            <mxPoint x="1115.5" y="-20" as="targetPoint" />
            <Array as="points">
              <mxPoint x="425.5" y="350" />
              <mxPoint x="425.5" y="350" />
            </Array>
          </mxGeometry>
        </mxCell>
        <mxCell id="mO9wln73oTjzs57yLY-i-236" value="" style="edgeStyle=segmentEdgeStyle;strokeColor=#2F5B7C;strokeWidth=3;html=1;endArrow=block;endFill=1;exitX=0.75;exitY=1;exitDx=0;exitDy=0;entryX=0;entryY=0.5;entryDx=0;entryDy=0;" edge="1" parent="1" source="mO9wln73oTjzs57yLY-i-218" target="mO9wln73oTjzs57yLY-i-221">
          <mxGeometry x="644.5" y="308.5" width="100" height="100" as="geometry">
            <mxPoint x="550.5" y="390" as="sourcePoint" />
            <mxPoint x="520.5" y="510" as="targetPoint" />
            <Array as="points">
              <mxPoint x="600.5" y="500" />
            </Array>
          </mxGeometry>
        </mxCell>
        <mxCell id="mO9wln73oTjzs57yLY-i-237" value="" style="edgeStyle=segmentEdgeStyle;strokeColor=#2F5B7C;strokeWidth=3;html=1;endArrow=block;endFill=1;exitX=0.5;exitY=0;exitDx=0;exitDy=0;entryX=0.5;entryY=1;entryDx=0;entryDy=0;" edge="1" parent="1" source="mO9wln73oTjzs57yLY-i-222" target="mO9wln73oTjzs57yLY-i-221">
          <mxGeometry x="644.5" y="308.5" width="100" height="100" as="geometry">
            <mxPoint x="870" y="545" as="sourcePoint" />
            <mxPoint x="970" y="420" as="targetPoint" />
          </mxGeometry>
        </mxCell>
        <mxCell id="mO9wln73oTjzs57yLY-i-239" value="" style="edgeStyle=segmentEdgeStyle;strokeColor=#2F5B7C;strokeWidth=3;html=1;endArrow=block;endFill=1;entryX=1;entryY=0.75;entryDx=0;entryDy=0;" edge="1" parent="1" source="mO9wln73oTjzs57yLY-i-221" target="mO9wln73oTjzs57yLY-i-218">
          <mxGeometry x="644.5" y="308.5" width="100" height="100" as="geometry">
            <mxPoint x="610.5" y="390" as="sourcePoint" />
            <mxPoint x="640.5" y="510" as="targetPoint" />
            <Array as="points">
              <mxPoint x="685.5" y="365" />
            </Array>
          </mxGeometry>
        </mxCell>
      </root>
    </mxGraphModel>
  </diagram>
</mxfile>
